<svg width="350" height="350" viewBox="0 0 350 350" fill="none" xmlns="http://www.w3.org/2000/svg">
<path d="M234.68 188.812L197.093 178.901C192.792 177.779 188.865 175.909 185.312 173.291C181.572 170.673 178.393 167.681 175.775 164.315C173.157 160.762 170.913 157.022 169.417 152.908C167.921 148.794 167.173 144.493 167.173 140.379C167.173 136.078 165.677 132.338 163.059 129.159C160.441 125.793 156.888 123.736 152.774 122.614L115.187 112.516L115.187 67.6363L152.213 77.5473C156.327 78.6693 160.254 80.3523 163.994 82.9703C167.547 85.5883 170.726 88.5803 173.344 92.1333C175.962 95.4993 178.206 99.4263 179.702 103.54C181.198 107.654 182.133 111.768 182.133 116.069C182.133 119.996 183.255 123.549 185.873 126.915C188.304 130.281 191.857 132.525 196.532 133.834L234.68 143.932L234.68 188.812ZM234.68 281.399L197.093 271.488C192.792 270.366 188.865 268.496 185.312 265.878C181.572 263.26 178.393 260.268 175.775 256.902C173.157 253.349 170.913 249.609 169.417 245.495C167.921 241.381 167.173 237.08 167.173 232.966C167.173 228.665 165.677 224.925 163.059 221.746C160.441 218.38 156.888 216.323 152.774 215.201L115.187 205.103L115.187 160.223L152.213 170.134C156.327 171.256 160.254 172.939 163.994 175.557C167.547 178.175 170.726 181.167 173.344 184.72C175.962 188.086 178.206 192.013 179.702 196.127C181.198 200.241 182.133 204.355 182.133 208.656C182.133 212.583 183.255 216.136 185.873 219.502C188.304 222.868 191.857 225.112 196.532 226.421L234.68 236.519L234.68 281.399Z" fill="url(#paint0_linear_201_12)"/>
<defs>
<linearGradient id="paint0_linear_201_12" x1="37.5" y1="175" x2="307" y2="225.5" gradientUnits="userSpaceOnUse">
<stop offset="0.443064" stop-color="white"/>
<stop offset="0.519351" stop-color="#B2B2B2"/>
</linearGradient>
</defs>
</svg>
